<svg width="24.000000" height="24.000000" viewBox="0 0 24 24" fill="none" xmlns="http://www.w3.org/2000/svg" xmlns:xlink="http://www.w3.org/1999/xlink">
	<desc>
			Created with Pixso.
	</desc>
	<defs/>
	<rect id="tabler:edit" rx="0.000000" width="23.000000" height="23.000000" transform="translate(0.500000 0.500000)" fill="#FFFFFF" fill-opacity="0"/>
	<path id="Vector" d="M7 7L6 7C5.46 7 4.96 7.21 4.58 7.58C4.21 7.96 4 8.46 4 9L4 18C4 18.53 4.21 19.03 4.58 19.41C4.96 19.78 5.46 20 6 20L15 20C15.53 20 16.03 19.78 16.41 19.41C16.78 19.03 17 18.53 17 18L17 17" stroke="#5C5F61" stroke-opacity="1.000000" stroke-width="1.500000" stroke-linejoin="round" stroke-linecap="round"/>
	<path id="Vector" d="M21 5.09C21 4.54 20.77 4 20.38 3.61C19.99 3.22 19.45 2.99 18.9 2.99C18.34 2.99 17.8 3.22 17.41 3.61L9 12L9 15L12 15L20.38 6.58C20.77 6.19 21 5.65 21 5.09ZM16 5L19 8" stroke="#5C5F61" stroke-opacity="1.000000" stroke-width="1.500000" stroke-linejoin="round" stroke-linecap="round"/>
</svg>
